<svg width="24" height="25" viewBox="0 0 24 25" fill="none" xmlns="http://www.w3.org/2000/svg">
<path d="M12.25 2.21057C11.55 2.16057 10.82 2.32057 10.17 2.70057C9.75245 2.93965 9.3862 3.25879 9.09225 3.6397C8.7983 4.02061 8.58242 4.4558 8.457 4.92031C8.33159 5.38483 8.29909 5.86953 8.36138 6.34662C8.42367 6.82372 8.57952 7.28383 8.82 7.70057L16.16 20.4006C17.17 22.1606 19.41 22.7406 21.17 21.7406C22.92 20.7406 23.5 18.4906 22.5 16.7406L15.18 4.04057C14.8773 3.5202 14.4523 3.08153 13.9417 2.76263C13.4311 2.44373 12.8504 2.25423 12.25 2.21057ZM6.82 7.50057L1.5 16.7406C1.17583 17.2962 1.0034 17.9273 1 18.5706C1 19.0525 1.09493 19.5298 1.27936 19.975C1.4638 20.4203 1.73413 20.8249 2.07492 21.1657C2.41571 21.5064 2.82029 21.7768 3.26555 21.9612C3.71082 22.1456 4.18805 22.2406 4.67 22.2406C5.3133 22.2386 5.94478 22.0676 6.50115 21.7446C7.05752 21.4217 7.51923 20.9582 7.84 20.4006V20.4106L11 14.9306C9.65 12.6306 8.27 10.3406 7.03 7.97057C6.95 7.82057 6.88 7.66057 6.83 7.50057H6.82Z" fill="black"/>
</svg>
