<svg width="20" height="20" viewBox="0 0 20 20" fill="none" xmlns="http://www.w3.org/2000/svg">
<path d="M12.25 0.52C10.962 0.52 9.79 1.55 9.79 2.98V7.12C9.79 8.408 10.82 9.58 12.25 9.58C13.538 9.58 14.71 8.55 14.71 7.12V2.89C14.71 1.55 13.627 0.52 12.25 0.52ZM17.38 5.11C16.156 5.11 15.19 6.076 15.19 7.3V8.74C15.19 9.154 15.526 9.49 15.94 9.49H17.38C18.604 9.49 19.57 8.524 19.57 7.3C19.57 6.076 18.604 5.11 17.38 5.11ZM2.71 5.02L2.642 5.023C1.328 5.143 0.25 6.133 0.25 7.48C0.25 8.768 1.28 9.94 2.71 9.94H6.85C8.138 9.94 9.31 8.91 9.31 7.48C9.31 6.192 8.28 5.02 6.85 5.02H2.71ZM7.12 0.25C5.896 0.25 4.93 1.216 4.93 2.44C4.93 3.664 5.896 4.63 7.12 4.63H8.56C8.75891 4.63 8.94968 4.55098 9.09033 4.41033C9.23098 4.26968 9.31 4.07891 9.31 3.88V2.44C9.31 1.216 8.344 0.25 7.12 0.25ZM7.66 10.51C6.372 10.51 5.2 11.54 5.2 12.97V17.11C5.2 17.1353 5.20133 17.1603 5.204 17.185C5.323 18.373 6.286 19.57 7.66 19.57C8.948 19.57 10.12 18.54 10.12 17.11V12.97C10.12 11.682 9.09 10.51 7.66 10.51ZM2.62 10.51C1.396 10.51 0.43 11.476 0.43 12.7C0.43 13.924 1.396 14.89 2.62 14.89C3.844 14.89 4.81 13.924 4.81 12.7V11.26C4.81 11.0611 4.73098 10.8703 4.59033 10.7297C4.44968 10.589 4.25891 10.51 4.06 10.51H2.62ZM13.15 10.06C11.862 10.06 10.69 11.09 10.69 12.52C10.69 13.808 11.72 14.98 13.15 14.98H17.29C18.604 14.98 19.75 13.834 19.75 12.52C19.75 11.232 18.72 10.06 17.29 10.06H13.15ZM11.44 15.37C11.2411 15.37 11.0503 15.449 10.9097 15.5897C10.769 15.7303 10.69 15.9211 10.69 16.12V17.56C10.69 18.784 11.656 19.75 12.88 19.75C14.104 19.75 15.07 18.784 15.07 17.56C15.07 16.336 14.104 15.37 12.88 15.37H11.44Z" fill="#333333"/>
</svg>
