<svg width="18" height="18" viewBox="0 0 18 18" fill="none" xmlns="http://www.w3.org/2000/svg">
<path d="M5.64171 7.23842H12.3584M5.64171 10.7618H10.4317M9.00004 16.7084C10.6745 16.7081 12.3034 16.1625 13.6402 15.1541C14.977 14.1458 15.9492 12.7295 16.4096 11.1196C16.87 9.50962 16.7937 7.79353 16.1921 6.23084C15.5905 4.66814 14.4965 3.34382 13.0754 2.45818C11.6543 1.57253 9.98341 1.17372 8.3155 1.32206C6.6476 1.47041 5.07335 2.15783 3.83086 3.28038C2.58836 4.40292 1.74518 5.89953 1.42885 7.54387C1.11251 9.18821 1.34022 10.8908 2.07754 12.3943C2.16754 12.5776 2.19754 12.7843 2.15171 12.9826L1.47171 15.9293C1.45254 16.012 1.45473 16.0982 1.4781 16.1798C1.50146 16.2614 1.54521 16.3357 1.60524 16.3957C1.66526 16.4558 1.73958 16.4995 1.82119 16.5229C1.9028 16.5462 1.98901 16.5484 2.07171 16.5293L5.01754 15.8484C5.21643 15.8049 5.42427 15.8314 5.60587 15.9234C6.66203 16.4421 7.8234 16.7107 9.00004 16.7084Z" stroke="#8C68FF" stroke-linecap="round" stroke-linejoin="round"/>
</svg>
