<svg width="24" height="25" viewBox="0 0 24 25" fill="none" xmlns="http://www.w3.org/2000/svg">
<path fill-rule="evenodd" clip-rule="evenodd" d="M11.9996 11.5408C12.9544 11.5408 13.8701 11.1615 14.5452 10.4864C15.2203 9.81127 15.5996 8.8956 15.5996 7.94082C15.5996 6.98604 15.2203 6.07037 14.5452 5.39524C13.8701 4.72011 12.9544 4.34082 11.9996 4.34082C11.0448 4.34082 10.1292 4.72011 9.45403 5.39524C8.77889 6.07037 8.39961 6.98604 8.39961 7.94082C8.39961 8.8956 8.77889 9.81127 9.45403 10.4864C10.1292 11.1615 11.0448 11.5408 11.9996 11.5408ZM3.59961 22.3408C3.59961 21.2377 3.81688 20.1454 4.23902 19.1263C4.66116 18.1071 5.2799 17.1811 6.05991 16.4011C6.83992 15.6211 7.76593 15.0024 8.78507 14.5802C9.8042 14.1581 10.8965 13.9408 11.9996 13.9408C13.1027 13.9408 14.195 14.1581 15.2142 14.5802C16.2333 15.0024 17.1593 15.6211 17.9393 16.4011C18.7193 17.1811 19.3381 18.1071 19.7602 19.1263C20.1823 20.1454 20.3996 21.2377 20.3996 22.3408H3.59961Z" fill="#8C68FF"/>
</svg>
