<svg width="22" height="24" viewBox="0 0 22 24" fill="none" xmlns="http://www.w3.org/2000/svg">
<rect width="21.7453" height="24" fill="white"/>
<path d="M3.00414 14.3198C3.00414 15.1654 3.17251 15.8153 3.39234 16.2081C3.68055 16.7226 4.11066 16.9408 4.54886 16.9408C5.11426 16.9408 5.63113 16.7859 6.6281 15.2644C7.42656 14.0447 8.36766 12.3333 9.0007 11.2598L10.0727 9.44127C10.8175 8.17863 11.6791 6.77479 12.668 5.82375C13.4746 5.04718 14.3451 4.61548 15.2215 4.61548C16.692 4.61548 18.0933 5.55597 19.1653 7.3201C20.3387 9.2522 20.9085 11.6858 20.9085 14.1973C20.9085 15.6904 20.6416 16.7875 20.188 17.6541C19.7498 18.4924 18.8955 19.3298 17.4581 19.3298V16.94C18.6889 16.94 18.9954 15.692 18.9954 14.2638C18.9954 12.2287 18.5653 9.96954 17.6184 8.35553C16.9464 7.21055 16.0751 6.51107 15.1164 6.51107C14.0797 6.51107 13.2459 7.37365 12.3085 8.9122C11.81 9.72934 11.2983 10.7258 10.7241 11.8497L10.0918 13.0864C8.8213 15.5727 8.49927 16.1383 7.86476 17.0731C6.75162 18.709 5.80096 19.3298 4.5496 19.3298C3.06516 19.3298 2.12627 18.6206 1.5447 17.5511C1.06901 16.6804 0.835938 15.537 0.835938 14.2338L3.00414 14.3198Z" fill="#5F5F5F"/>
<path d="M2.54492 7.48937C3.53896 5.79827 4.9734 4.61597 6.61885 4.61597C7.57171 4.61597 8.51869 4.92757 9.50758 5.81856C10.5898 6.79313 11.7427 8.3974 13.1815 11.0428L13.6977 11.9922C14.9431 14.2822 15.6512 15.4596 16.0658 16.0154C16.5989 16.7287 16.9724 16.9413 17.4576 16.9413C18.6884 16.9413 18.995 15.6933 18.995 14.2651L20.9074 14.1986C20.9074 15.6917 20.6405 16.7888 20.1868 17.6554C19.7486 18.4937 18.8943 19.3311 17.4569 19.3311C16.5636 19.3311 15.7718 19.1169 14.8968 18.2056C14.2241 17.5061 13.4374 16.2638 12.8323 15.1464L11.0324 11.8275C10.1296 10.1615 9.30097 8.91999 8.82087 8.35764C8.30473 7.7531 7.64229 7.02278 6.58355 7.02278C5.72701 7.02278 4.99986 7.68574 4.39109 8.70089L2.54492 7.48937Z" fill="#5F5F5F"/>
<path d="M6.58399 7.02148C5.72744 7.02148 5.0003 7.68445 4.39152 8.69959C3.53057 10.1335 3.00414 12.2684 3.00414 14.3198C3.00414 15.1654 3.17251 15.8153 3.39234 16.2081L1.54397 17.5519C1.06901 16.6804 0.835938 15.537 0.835938 14.2338C0.835938 11.8651 1.42486 9.39583 2.54535 7.48888C3.53939 5.79779 4.97383 4.61548 6.61928 4.61548L6.58399 7.02148Z" fill="#5F5F5F"/>
</svg>
