<svg width="24" height="25" viewBox="0 0 24 25" fill="none" xmlns="http://www.w3.org/2000/svg">
<path fill-rule="evenodd" clip-rule="evenodd" d="M10.3092 2.24048H13.6542C14.1582 2.23298 14.6517 2.39798 15.0492 2.70848C15.4497 3.02348 15.7272 3.46598 15.8292 3.96398L16.1217 5.36648C16.2487 5.43448 16.3737 5.50448 16.4967 5.57648L17.9142 5.11148C18.2058 5.01736 18.5137 4.98463 18.8186 5.01535C19.1235 5.04607 19.4187 5.13958 19.6857 5.28998C20.0157 5.47598 20.2932 5.74298 20.4867 6.06998L22.1742 8.85398C22.447 9.28537 22.5546 9.80086 22.4771 10.3054C22.3996 10.8098 22.1423 11.2693 21.7527 11.599H21.7497L20.6367 12.5485V12.9355L21.7362 13.915C22.1183 14.2393 22.3728 14.6887 22.4544 15.1832C22.536 15.6777 22.4394 16.1851 22.1817 16.615L20.5467 19.405V19.408C20.3521 19.7335 20.0763 20.003 19.7463 20.1899C19.4163 20.3769 19.0434 20.4749 18.6642 20.4745C18.4296 20.4757 18.1963 20.4403 17.9727 20.3695L17.9652 20.3665L16.5597 19.903C16.4347 19.977 16.3077 20.0475 16.1787 20.1145L15.8877 21.5155C15.785 22.0137 15.5085 22.4592 15.1077 22.7725C14.7092 23.0843 14.2156 23.2495 13.7097 23.2405H10.3377C9.83281 23.2488 9.34038 23.0836 8.94268 22.7725C8.54215 22.4596 8.26573 22.0147 8.16268 21.517L7.87018 20.113C7.74353 20.046 7.61849 19.976 7.49518 19.903L6.07768 20.368C5.78607 20.4621 5.47813 20.4948 5.17325 20.4641C4.86837 20.4334 4.57315 20.3399 4.30618 20.1895C3.97573 20.0051 3.69951 19.7372 3.50518 19.4125L1.81618 16.6225C1.55429 16.1998 1.44968 15.6984 1.52073 15.2063C1.59178 14.7142 1.83394 14.2628 2.20468 13.9315L3.32518 12.5185L2.25568 11.566C1.87305 11.2413 1.61831 10.7912 1.53698 10.2961C1.45564 9.80091 1.55301 9.29296 1.81168 8.86298L1.81468 8.85998L3.50518 6.06998C3.69692 5.74746 3.96883 5.48003 4.29449 5.29368C4.62015 5.10733 4.98848 5.00839 5.36368 5.00648C5.58968 4.99448 5.81268 5.01598 6.03268 5.07098L6.06568 5.07998L7.46818 5.57348C7.59118 5.50148 7.71618 5.43248 7.84318 5.36648L8.13418 3.96548C8.2369 3.46724 8.51335 3.02173 8.91418 2.70848C9.31018 2.39798 9.80518 2.23298 10.3092 2.24048ZM11.9997 9.74048C11.204 9.74048 10.441 10.0565 9.87836 10.6192C9.31575 11.1818 8.99968 11.9448 8.99968 12.7405C8.99968 13.5361 9.31575 14.2992 9.87836 14.8618C10.441 15.4244 11.204 15.7405 11.9997 15.7405C12.7953 15.7405 13.5584 15.4244 14.121 14.8618C14.6836 14.2992 14.9997 13.5361 14.9997 12.7405C14.9997 11.9448 14.6836 11.1818 14.121 10.6192C13.5584 10.0565 12.7953 9.74048 11.9997 9.74048ZM7.49968 12.7405C7.49968 11.547 7.97379 10.4024 8.8177 9.5585C9.66161 8.71458 10.8062 8.24048 11.9997 8.24048C13.1932 8.24048 14.3377 8.71458 15.1817 9.5585C16.0256 10.4024 16.4997 11.547 16.4997 12.7405C16.4997 13.934 16.0256 15.0785 15.1817 15.9225C14.3377 16.7664 13.1932 17.2405 11.9997 17.2405C10.8062 17.2405 9.66161 16.7664 8.8177 15.9225C7.97379 15.0785 7.49968 13.934 7.49968 12.7405Z" fill="black"/>
</svg>
